<?xml version="1.0"?>
<svg xmlns="http://www.w3.org/2000/svg" xmlns:xlink="http://www.w3.org/1999/xlink" version="1.1" id="Capa_1" x="0px" y="0px" viewBox="0 0 512.016 512.016" style="enable-background:new 0 0 512.016 512.016;" xml:space="preserve" width="512px" height="512px"><g><g>
	<g>
		<rect x="40.009" y="407.917" width="16" height="16" data-original="#000000" class="active-path" data-old_color="#000000" fill="#1F1F1F"/>
	</g>
</g><g>
	<g>
		<path d="M359.207,388.336l-8-16c-0.852-1.685-2.267-3.018-4-3.768l-53.12-22.976l-4.274-13.254    c13.838-11.186,22.194-29.741,22.194-52.426v-16v-48c0-2.122-0.844-4.156-2.344-5.656c-14.943-12.642-34.101-19.192-53.656-18.344    c-19.555-0.848-38.712,5.702-53.656,18.344c-1.5,1.5-2.344,3.534-2.344,5.656v48v16c0,22.678,8.351,41.229,22.182,52.416    l-4.278,13.264l-53.064,22.976c-1.733,0.75-3.148,2.083-4,3.768l-8,16c-0.554,1.111-0.841,2.335-0.84,3.576v120h16V393.8    l5.84-11.712l48.17-20.854l25.99,25.99v44.688h16v-44.688l25.987-25.987l48.165,20.851l5.848,11.712v118.112h16v-120    C360.021,390.674,359.747,389.45,359.207,388.336z M216.007,219.64c11.729-8.101,25.754-12.213,40-11.728    c14.247-0.486,28.271,3.626,40,11.728v35.117c-4-1.052-8-3.053-8-6.845c0-4.418-3.582-8-8-8h-48c-4.418,0-8,3.582-8,8    c0,3.792-4,5.792-8,6.845V219.64z M256.008,372.6l-22.695-22.695l3.05-9.463c6.01,2.259,12.598,3.47,19.644,3.47    c7.042,0,13.626-1.21,19.634-3.466l3.055,9.466L256.008,372.6z M256.007,327.912c-29.52,0-40-25.856-40-48v-8.752    c9.619-0.917,18.113-6.661,22.544-15.248h34.912c4.431,8.587,12.925,14.331,22.544,15.248v8.752    C296.007,302.056,285.527,327.912,256.007,327.912z" data-original="#000000" class="active-path" data-old_color="#000000" fill="#1F1F1F"/>
	</g>
</g><g>
	<g>
		<rect x="192.009" y="463.917" width="16" height="48" data-original="#000000" class="active-path" data-old_color="#000000" fill="#1F1F1F"/>
	</g>
</g><g>
	<g>
		<rect x="304.009" y="463.917" width="16" height="48" data-original="#000000" class="active-path" data-old_color="#000000" fill="#1F1F1F"/>
	</g>
</g><g>
	<g>
		<path d="M350.463,123.176l-88-120c-0.363-0.448-0.772-0.857-1.221-1.221c-3.566-2.891-8.8-2.345-11.691,1.221l-88,120    c-1.01,1.375-1.554,3.038-1.552,4.745c0.005,4.418,3.59,7.996,8.008,7.991h32v32h16v-40c0-4.418-3.582-8-8-8h-24.208    l72.208-98.472l72.208,98.472h-24.208c-4.418,0-8,3.582-8,8v40h16v-32h32c1.707,0.002,3.369-0.542,4.745-1.552    C352.313,131.744,353.079,126.737,350.463,123.176z" data-original="#000000" class="active-path" data-old_color="#000000" fill="#1F1F1F"/>
	</g>
</g><g>
	<g>
		<path d="M510.463,235.176l-88-120c-0.363-0.448-0.772-0.857-1.221-1.221c-3.566-2.891-8.8-2.345-11.691,1.221l-88,120    c-1.01,1.375-1.554,3.038-1.552,4.745c0.005,4.418,3.59,7.996,8.008,7.992h32v56h16v-64c0-4.418-3.582-8-8-8h-24.208    l72.208-98.472l72.208,98.472h-24.208h-48v16h40v144h16v-144h32c1.707,0.002,3.369-0.542,4.745-1.552    C512.313,243.744,513.079,238.737,510.463,235.176z" data-original="#000000" class="active-path" data-old_color="#000000" fill="#1F1F1F"/>
	</g>
</g><g>
	<g>
		<path d="M190.464,235.176l-88-120c-0.363-0.448-0.772-0.857-1.221-1.221c-3.566-2.891-8.8-2.345-11.691,1.221l-88,120    c-1.01,1.375-1.554,3.038-1.552,4.745c0.005,4.418,3.59,7.996,8.008,7.992h32v144h16v-144h40v-16h-48H23.799l72.208-98.472    l72.209,98.471h-24.208c-4.418,0-8,3.582-8,8v64h16v-56h32c1.707,0.002,3.369-0.542,4.745-1.552    C192.314,243.744,193.08,238.737,190.464,235.176z" data-original="#000000" class="active-path" data-old_color="#000000" fill="#1F1F1F"/>
	</g>
</g><g>
	<g>
		<rect x="136.009" y="319.917" width="16" height="16" data-original="#000000" class="active-path" data-old_color="#000000" fill="#1F1F1F"/>
	</g>
</g><g>
	<g>
		<rect x="360.009" y="319.917" width="16" height="16" data-original="#000000" class="active-path" data-old_color="#000000" fill="#1F1F1F"/>
	</g>
</g><g>
	<g>
		<rect x="456.009" y="407.917" width="16" height="16" data-original="#000000" class="active-path" data-old_color="#000000" fill="#1F1F1F"/>
	</g>
</g></g> </svg>
