<?xml version="1.0"?>
<svg xmlns="http://www.w3.org/2000/svg" xmlns:xlink="http://www.w3.org/1999/xlink" version="1.1" id="Capa_1" x="0px" y="0px" viewBox="0 0 512.03 512.03" style="enable-background:new 0 0 512.03 512.03;" xml:space="preserve" width="512px" height="512px"><g><g>
	<g>
		<path d="M383.8,499.39l-0.501-2.656c-4.286-22.814-5.563-46.091-3.797-69.237l-21.28-1.6c-1.636,21.622-0.824,43.36,2.421,64.8    h-207.2l27.296-81.963c0.64-1.922,0.719-3.986,0.228-5.951c-1.427-5.716-7.217-9.193-12.932-7.766    c-0.448,0.085-40.117,9.771-68.715,0.224c-20.907-6.976-19.093-59.659-14.933-84.085c0.101-0.593,0.152-1.193,0.152-1.794    c-0.001-5.891-4.778-10.666-10.669-10.664H35.181c-7.638,0-13.837-6.176-13.867-13.813c-0.005-2.767,0.828-5.47,2.389-7.755    l53.664-79.147c1.594-2.372,2.181-5.28,1.632-8.085c-0.085-0.565-11.595-61.557,27.531-109.141    c32.395-39.413,89.856-59.392,170.784-59.392V0.03c-87.776,0-150.848,22.677-187.456,67.403    c-26.856,34.661-38.586,78.694-32.533,122.123L6.051,265.139c-3.917,5.803-6.013,12.643-6.023,19.644    c-0.026,19.44,15.713,35.221,35.153,35.247h26.485c-2.827,26.368-4.629,83.595,30.944,95.477    c20.252,5.633,41.479,6.845,62.24,3.552l-26.325,78.933c-0.362,1.088-0.547,2.227-0.547,3.373    c0.001,5.891,4.778,10.666,10.669,10.664h234.667c0.663,0,1.325-0.062,1.976-0.184C381.08,510.756,384.89,505.179,383.8,499.39z" data-original="#000000" class="active-path" data-old_color="#000000" fill="#7054BE"/>
	</g>
</g><g>
	<g>
		<path d="M459.924,27.631c-58.381-44.88-142.091-33.934-186.97,24.447c-44.88,58.381-33.934,142.091,24.447,186.97    c21.322,17.066,33.588,43.006,33.248,70.315v42.667c0,5.891,4.776,10.667,10.667,10.667h85.333    c5.891,0,10.667-4.776,10.667-10.667v-51.669c0.139-25.968,11.26-50.664,30.613-67.979c6.009-5.416,11.512-11.367,16.442-17.78    C529.25,156.22,518.305,72.511,459.924,27.631z M453.635,216.563c-23.824,21.36-37.501,51.8-37.653,83.797v41.003h-64v-32    c0.313-33.93-15.035-66.11-41.6-87.221c-26.844-20.529-42.928-52.125-43.733-85.909c-0.621-60.889,46.803-111.477,107.605-114.784    c1.464-0.057,2.93-0.086,4.396-0.086c61.856,0,112,50.145,111.999,112.001C490.625,165.082,477.178,195.308,453.635,216.563z" data-original="#000000" class="active-path" data-old_color="#000000" fill="#7054BE"/>
	</g>
</g><g>
	<g>
		<path d="M415.981,352.03c0,17.673-14.327,32-32,32h-128v21.333h128c29.441-0.035,53.298-23.893,53.333-53.333H415.981z" data-original="#000000" class="active-path" data-old_color="#000000" fill="#7054BE"/>
	</g>
</g><g>
	<g>
		<rect x="309.315" y="298.697" width="149.333" height="21.333" data-original="#000000" class="active-path" data-old_color="#000000" fill="#7054BE"/>
	</g>
</g><g>
	<g>
		<path d="M245.315,362.697c-17.673,0-32,14.327-32,32s14.327,32,32,32c17.673,0,32-14.327,32-32S262.988,362.697,245.315,362.697z     M245.315,405.363c-5.891,0-10.667-4.776-10.667-10.667s4.776-10.667,10.667-10.667c5.891,0,10.667,4.776,10.667,10.667    S251.206,405.363,245.315,405.363z" data-original="#000000" class="active-path" data-old_color="#000000" fill="#7054BE"/>
	</g>
</g><g>
	<g>
		<path d="M159.981,288.03c-17.673,0-32,14.327-32,32s14.327,32,32,32s32-14.327,32-32S177.655,288.03,159.981,288.03z     M159.981,330.697c-5.891,0-10.667-4.776-10.667-10.667s4.776-10.667,10.667-10.667s10.667,4.776,10.667,10.667    S165.872,330.697,159.981,330.697z" data-original="#000000" class="active-path" data-old_color="#000000" fill="#7054BE"/>
	</g>
</g><g>
	<g>
		<path d="M255.981,309.363h-74.667v21.333h74.667c23.564,0,42.667,19.102,42.667,42.667h21.333    C319.946,338.032,291.313,309.399,255.981,309.363z" data-original="#000000" class="active-path" data-old_color="#000000" fill="#7054BE"/>
	</g>
</g><g>
	<g>
		<path d="M117.315,213.363c-17.673,0-32,14.327-32,32c0,17.673,14.327,32,32,32c17.673,0,32-14.327,32-32    C149.315,227.69,134.988,213.363,117.315,213.363z M117.315,256.03c-5.891,0-10.667-4.776-10.667-10.667    c0-5.891,4.776-10.667,10.667-10.667c5.891,0,10.667,4.776,10.667,10.667C127.981,251.254,123.206,256.03,117.315,256.03z" data-original="#000000" class="active-path" data-old_color="#000000" fill="#7054BE"/>
	</g>
</g><g>
	<g>
		<path d="M202.648,42.697c-17.673,0-32,14.327-32,32c0,17.673,14.327,32,32,32c17.673,0,32-14.327,32-32    C234.648,57.023,220.321,42.697,202.648,42.697z M202.648,85.363c-5.891,0-10.667-4.776-10.667-10.667    c0-5.891,4.776-10.667,10.667-10.667c5.891,0,10.667,4.776,10.667,10.667C213.315,80.588,208.539,85.363,202.648,85.363z" data-original="#000000" class="active-path" data-old_color="#000000" fill="#7054BE"/>
	</g>
</g><g>
	<g>
		<path d="M138.648,117.363c-17.673,0-32,14.327-32,32c0,17.673,14.327,32,32,32c17.673,0,32-14.327,32-32    C170.648,131.69,156.321,117.363,138.648,117.363z M138.648,160.03c-5.891,0-10.667-4.776-10.667-10.667    c0-5.891,4.776-10.667,10.667-10.667s10.667,4.776,10.667,10.667C149.315,155.254,144.539,160.03,138.648,160.03z" data-original="#000000" class="active-path" data-old_color="#000000" fill="#7054BE"/>
	</g>
</g><g>
	<g>
		<path d="M202.648,234.697h-64v21.333h64c23.564,0,42.667,19.103,42.667,42.667h21.333    C266.613,263.365,237.98,234.732,202.648,234.697z" data-original="#000000" class="active-path" data-old_color="#000000" fill="#7054BE"/>
	</g>
</g><g>
	<g>
		<path d="M159.981,138.697v21.333c17.673,0,32,14.327,32,32v32h21.333v-32C213.28,162.589,189.422,138.732,159.981,138.697z" data-original="#000000" class="active-path" data-old_color="#000000" fill="#7054BE"/>
	</g>
</g><g>
	<g>
		<rect x="191.981" y="96.03" width="21.333" height="42.667" data-original="#000000" class="active-path" data-old_color="#000000" fill="#7054BE"/>
	</g>
</g><g>
	<g>
		<path d="M451.107,109.801l-36.48,36.48l-24.725-16.48c-3.584-2.391-8.256-2.391-11.84,0l-24.725,16.48l-36.48-36.48    l-15.083,15.083l42.667,42.667c3.596,3.597,9.23,4.155,13.461,1.333l26.08-17.387l26.08,17.408    c1.753,1.169,3.813,1.792,5.92,1.792c2.832-0.006,5.545-1.138,7.541-3.147l42.667-42.667L451.107,109.801z" data-original="#000000" class="active-path" data-old_color="#000000" fill="#7054BE"/>
	</g>
</g><g>
	<g>
		<rect x="373.315" y="170.697" width="21.333" height="128" data-original="#000000" class="active-path" data-old_color="#000000" fill="#7054BE"/>
	</g>
</g></g> </svg>
