<?xml version="1.0"?>
<svg xmlns="http://www.w3.org/2000/svg" xmlns:xlink="http://www.w3.org/1999/xlink" version="1.1" id="Capa_1" x="0px" y="0px" viewBox="0 0 288.693 288.693" style="enable-background:new 0 0 288.693 288.693;" xml:space="preserve" width="512px" height="512px" class=""><g><g>
	<path d="M74.609,288.359H4.544V91.698h70.065V288.359z M17.397,275.506h44.358V104.552H17.397V275.506z M39.589,79.423   C17.764,79.423,0,61.678,0,39.872S17.764,0.334,39.589,0.334c21.819,0,39.564,17.738,39.564,39.538   C79.153,61.685,61.408,79.423,39.589,79.423z M39.589,13.188c-14.743,0-26.736,11.973-26.736,26.684   c0,14.724,11.992,26.697,26.736,26.697c14.73,0,26.71-11.98,26.71-26.697C66.299,25.161,54.32,13.188,39.589,13.188z    M288.693,288.359h-69.969v-95.798c0-28.67-3.483-42.314-23.297-42.314c-20.045,0-27.854,11.427-27.854,40.759v97.354H97.63V91.698   h67.642v13.914c10.771-10.148,27.096-18.477,48.439-18.477c66.068,0,74.975,47.514,74.975,93.992v107.232H288.693z    M231.578,275.506h44.262v-94.378c0-50.091-10.392-81.139-62.122-81.139c-25.515,0-42.019,14.145-48.4,26.254l-1.806,3.432h-11.086   v-25.116H110.49v170.954h44.236v-84.506c0-14.66,0-53.613,40.708-53.613c36.151,0,36.151,35.887,36.151,55.168v82.945H231.578z" data-original="#000000" class="active-path" data-old_color="#000000" fill="#1F1F1F"/>
</g></g> </svg>
